PathFileType	4	(x/y/z)	S04_BK_Cal.trc
DataRate	CameraRate	NumFrames	NumMarkers	Units	OrigDataRate	OrigDataStartFrame	OrigNumFrames
240	240	10	51	mm	240	601	2400
Frame#	Time	Sternum			R.Acromium			L.Acromium			Top.Head			R.ASIS			L.ASIS			R.PSIS			L.PSIS			R.Great.Tro			L.Great.Tro			R.Iliac.Crest			L.Iliac.Crest			V.Sacral			R.Thigh.Upper.Post			R.Thigh.Lower.Ant			R.Thigh.Lower.Post			R.Thigh.Upper.Ant			R.Knee.Lat			R.Knee.Med			R.Shank.Upper.Post			R.Shank.Lower.Ant			R.Shank.Lower.Post			R.Shank.Upper.Ant			R.Ankle.Lat			R.Ankle.Med			R.Heel.Upper			R.Heel.Med			R.Heel.Lat			R.Toe.Lat			R.Toe.Med			R.Toe.Tip			L.Thigh.Upper.Post			L.Thigh.Lower.Ant			L.Thigh.Lower.Post			L.Thigh.Upper.Ant			L.Knee.Lat			L.Knee.Med			L.Shank.Upper.Post			L.Shank.Lower.Ant			L.Shank.Lower.Post			L.Shank.Upper.Ant			L.Ankle.Lat			L.Ankle.Med			L.Heel.Upper			L.Heel.Med			L.Heel.Lat			L.Toe.Lat			L.Toe.Med			L.Toe.Tip			Cervical.Spine			Back			
		X1	Y1	Z1	X2	Y2	Z2	X3	Y3	Z3	X4	Y4	Z4	X5	Y5	Z5	X6	Y6	Z6	X7	Y7	Z7	X8	Y8	Z8	X9	Y9	Z9	X10	Y10	Z10	X11	Y11	Z11	X12	Y12	Z12	X13	Y13	Z13	X14	Y14	Z14	X15	Y15	Z15	X16	Y16	Z16	X17	Y17	Z17	X18	Y18	Z18	X19	Y19	Z19	X20	Y20	Z20	X21	Y21	Z21	X22	Y22	Z22	X23	Y23	Z23	X24	Y24	Z24	X25	Y25	Z25	X26	Y26	Z26	X27	Y27	Z27	X28	Y28	Z28	X29	Y29	Z29	X30	Y30	Z30	X31	Y31	Z31	X32	Y32	Z32	X33	Y33	Z33	X34	Y34	Z34	X35	Y35	Z35	X36	Y36	Z36	X37	Y37	Z37	X38	Y38	Z38	X39	Y39	Z39	X40	Y40	Z40	X41	Y41	Z41	X42	Y42	Z42	X43	Y43	Z43	X44	Y44	Z44	X45	Y45	Z45	X46	Y46	Z46	X47	Y47	Z47	X48	Y48	Z48	X49	Y49	Z49	X50	Y50	Z50	X51	Y51	Z51	

601	2.5	347.66	1221.6	295.14	225.84	1451.4	476.99	202.2	1441.3	131.06	223.22	1770.9	294.06	315.83	937.27	434.23	314.09	951.97	186.01	102.16	977.14	337.61	108.25	980.46	254.54	228.8	864.81	501.56	201.58	869.63	117.21	237.64	1031.1	476.4	217.69	1036.5	140.42	83.927	936.89	296.21	303.29	614.66	514.5	403.54	560.35	491.75	333.37	529.23	503.31	374.63	666.88	504.8	371.97	469.5	496.86	360.09	458.21	369.37	231.42	287.04	505.82	264.88	187.73	464	206.12	221.02	492.96	288.82	254.55	485.68	166.76	110.48	478.32	190.63	115.7	388.95	97.874	75.759	421.51	108.27	44.829	392.34	98.514	44.523	456.86	263.68	39.776	519.32	311.32	39.529	402.93	369.31	56.17	457.07	258.77	635.29	106.14	367.76	573.38	90.315	299.45	555.16	107.84	323.07	652.5	87.457	365.07	479.08	100.51	381.63	456.83	224.37	229.84	342.84	93.792	266.18	238.1	86.838	209.54	267.58	94.976	286.45	311.85	84.107	178.56	105.31	97.894	187.01	111.29	192.1	101.51	73.465	141.54	108.74	47.611	174.98	105.26	46.506	113.07	288.03	42.589	69.658	321.69	47.825	184.67	377.87	56.936	133.96	171.39	1494.4	308.78	90.046	1239.3	290.69
602	2.5042	347.67	1221.6	295.16	225.86	1451.4	477.01	202.2	1441.3	131.07	223.26	1770.9	294.08	315.84	937.26	434.25	314.09	951.97	186.03	102.17	977.14	337.64	108.26	980.46	254.57	228.81	864.81	501.58	201.58	869.64	117.23	237.65	1031.1	476.42	217.69	1036.5	140.44	83.936	936.9	296.23	303.29	614.65	514.52	403.54	560.35	491.75	333.37	529.22	503.32	374.64	666.87	504.81	371.98	469.49	496.87	360.09	458.21	369.37	231.43	287.04	505.82	264.88	187.73	464	206.12	221.02	492.97	288.82	254.54	485.68	166.76	110.48	478.32	190.63	115.7	388.95	97.873	75.757	421.51	108.27	44.828	392.34	98.514	44.522	456.86	263.68	39.777	519.32	311.32	39.528	402.93	369.31	56.17	457.07	258.77	635.29	106.15	367.75	573.39	90.329	299.45	555.17	107.85	323.07	652.51	87.475	365.07	479.09	100.52	381.63	456.83	224.37	229.84	342.84	93.801	266.18	238.1	86.843	209.54	267.58	94.982	286.45	311.86	84.114	178.57	105.31	97.896	187.01	111.29	192.1	101.51	73.463	141.55	108.74	47.61	174.98	105.26	46.505	113.07	288.03	42.59	69.659	321.69	47.825	184.67	377.87	56.937	133.96	171.41	1494.4	308.81	90.063	1239.3	290.73
603	2.5083	347.68	1221.6	295.18	225.89	1451.4	477.03	202.2	1441.3	131.09	223.3	1770.9	294.1	315.85	937.26	434.27	314.1	951.97	186.05	102.18	977.14	337.66	108.27	980.46	254.6	228.82	864.8	501.6	201.58	869.64	117.25	237.67	1031.1	476.45	217.7	1036.5	140.46	83.945	936.91	296.25	303.3	614.65	514.53	403.55	560.34	491.76	333.37	529.22	503.33	374.64	666.86	504.83	371.98	469.49	496.87	360.09	458.21	369.38	231.43	287.04	505.83	264.88	187.72	464	206.12	221.02	492.97	288.83	254.54	485.68	166.75	110.48	478.32	190.63	115.7	388.95	97.873	75.755	421.51	108.27	44.828	392.34	98.513	44.521	456.86	263.68	39.778	519.32	311.32	39.528	402.93	369.31	56.17	457.07	258.77	635.3	106.17	367.75	573.39	90.342	299.44	555.17	107.86	323.07	652.51	87.493	365.06	479.09	100.53	381.63	456.83	224.38	229.84	342.85	93.81	266.17	238.11	86.848	209.53	267.59	94.989	286.45	311.86	84.12	178.57	105.31	97.897	187.01	111.29	192.11	101.52	73.462	141.55	108.74	47.609	174.98	105.26	46.505	113.07	288.03	42.591	69.659	321.69	47.825	184.67	377.87	56.938	133.96	171.43	1494.4	308.83	90.081	1239.3	290.78
604	2.5125	347.69	1221.6	295.2	225.91	1451.4	477.04	202.2	1441.3	131.1	223.33	1770.9	294.12	315.86	937.26	434.29	314.11	951.96	186.08	102.19	977.15	337.69	108.28	980.46	254.63	228.83	864.8	501.63	201.58	869.64	117.27	237.68	1031.1	476.47	217.71	1036.5	140.48	83.954	936.92	296.27	303.3	614.64	514.54	403.56	560.33	491.76	333.38	529.22	503.33	374.65	666.86	504.84	371.99	469.48	496.88	360.09	458.21	369.38	231.43	287.04	505.83	264.88	187.72	464	206.13	221.02	492.97	288.83	254.54	485.68	166.75	110.48	478.32	190.63	115.69	388.95	97.872	75.754	421.52	108.27	44.828	392.34	98.513	44.52	456.86	263.68	39.779	519.32	311.32	39.528	402.93	369.31	56.169	457.07	258.77	635.31	106.18	367.75	573.39	90.357	299.44	555.17	107.88	323.07	652.52	87.512	365.06	479.1	100.54	381.62	456.83	224.39	229.83	342.85	93.818	266.17	238.11	86.854	209.53	267.59	94.996	286.44	311.87	84.127	178.57	105.31	97.899	187.01	111.29	192.11	101.52	73.461	141.55	108.74	47.608	174.98	105.27	46.505	113.07	288.03	42.592	69.659	321.69	47.826	184.67	377.87	56.939	133.96	171.45	1494.4	308.86	90.099	1239.3	290.82
605	2.5167	347.7	1221.6	295.22	225.94	1451.5	477.06	202.19	1441.2	131.11	223.37	1770.9	294.14	315.87	937.25	434.31	314.11	951.96	186.1	102.2	977.15	337.71	108.29	980.46	254.65	228.83	864.8	501.65	201.58	869.65	117.29	237.7	1031.2	476.49	217.72	1036.5	140.51	83.962	936.93	296.3	303.31	614.64	514.55	403.56	560.32	491.76	333.38	529.21	503.34	374.66	666.85	504.85	371.99	469.48	496.88	360.09	458.21	369.38	231.43	287.03	505.83	264.88	187.72	464	206.13	221.02	492.97	288.83	254.54	485.68	166.75	110.48	478.32	190.63	115.69	388.95	97.872	75.752	421.52	108.27	44.828	392.34	98.513	44.519	456.86	263.68	39.78	519.32	311.32	39.529	402.93	369.31	56.169	457.07	258.77	635.31	106.2	367.75	573.4	90.371	299.44	555.17	107.89	323.07	652.52	87.53	365.06	479.1	100.56	381.61	456.83	224.4	229.83	342.86	93.827	266.17	238.11	86.86	209.53	267.59	95.003	286.44	311.87	84.135	178.57	105.31	97.9	187.01	111.29	192.11	101.52	73.459	141.55	108.74	47.608	174.98	105.27	46.505	113.07	288.03	42.593	69.66	321.69	47.826	184.67	377.87	56.939	133.96	171.47	1494.4	308.88	90.117	1239.3	290.86
606	2.5208	347.71	1221.6	295.24	225.96	1451.5	477.08	202.18	1441.2	131.12	223.4	1770.9	294.16	315.88	937.25	434.33	314.12	951.96	186.12	102.21	977.15	337.74	108.29	980.46	254.68	228.84	864.79	501.67	201.58	869.65	117.32	237.71	1031.2	476.51	217.73	1036.5	140.53	83.97	936.94	296.32	303.32	614.63	514.56	403.57	560.32	491.76	333.39	529.21	503.35	374.66	666.84	504.87	372	469.47	496.89	360.09	458.21	369.39	231.43	287.03	505.83	264.88	187.71	463.99	206.13	221.01	492.97	288.83	254.53	485.68	166.75	110.48	478.32	190.63	115.69	388.95	97.871	75.752	421.52	108.27	44.83	392.34	98.512	44.519	456.86	263.69	39.781	519.32	311.32	39.529	402.93	369.31	56.169	457.07	258.77	635.32	106.21	367.75	573.4	90.386	299.44	555.18	107.91	323.07	652.52	87.548	365.05	479.1	100.57	381.61	456.83	224.41	229.83	342.86	93.836	266.16	238.11	86.865	209.52	267.6	95.01	286.44	311.87	84.142	178.57	105.31	97.902	187.01	111.29	192.11	101.53	73.459	141.55	108.74	47.607	174.98	105.27	46.505	113.07	288.03	42.594	69.66	321.69	47.826	184.67	377.87	56.94	133.96	171.49	1494.4	308.91	90.136	1239.3	290.9
607	2.525	347.72	1221.6	295.26	225.99	1451.5	477.1	202.16	1441.2	131.12	223.44	1770.9	294.18	315.89	937.24	434.35	314.12	951.95	186.14	102.22	977.16	337.76	108.3	980.46	254.71	228.85	864.79	501.7	201.58	869.65	117.34	237.72	1031.2	476.54	217.74	1036.5	140.55	83.978	936.95	296.34	303.32	614.63	514.57	403.58	560.31	491.76	333.4	529.2	503.35	374.67	666.84	504.88	372	469.47	496.89	360.1	458.21	369.39	231.43	287.03	505.83	264.88	187.71	463.99	206.13	221.01	492.98	288.83	254.53	485.68	166.75	110.48	478.32	190.63	115.69	388.95	97.871	75.751	421.52	108.26	44.832	392.34	98.512	44.518	456.86	263.69	39.782	519.32	311.33	39.529	402.93	369.31	56.168	457.07	258.77	635.32	106.23	367.75	573.4	90.402	299.44	555.18	107.92	323.07	652.53	87.566	365.05	479.11	100.58	381.6	456.82	224.42	229.83	342.86	93.845	266.16	238.12	86.871	209.52	267.6	95.017	286.43	311.88	84.149	178.57	105.31	97.903	187.01	111.29	192.11	101.53	73.458	141.55	108.74	47.606	174.98	105.27	46.505	113.07	288.03	42.595	69.661	321.69	47.827	184.67	377.87	56.941	133.96	171.51	1494.4	308.93	90.154	1239.3	290.95
608	2.5292	347.73	1221.6	295.28	226.01	1451.5	477.12	202.14	1441.1	131.13	223.47	1770.9	294.2	315.9	937.24	434.36	314.13	951.95	186.16	102.22	977.16	337.79	108.31	980.46	254.74	228.86	864.79	501.72	201.58	869.65	117.36	237.74	1031.2	476.56	217.75	1036.5	140.57	83.985	936.95	296.36	303.33	614.63	514.58	403.58	560.3	491.76	333.4	529.2	503.36	374.68	666.83	504.89	372.01	469.46	496.89	360.1	458.21	369.39	231.44	287.03	505.83	264.89	187.71	463.99	206.13	221.01	492.98	288.83	254.53	485.68	166.75	110.48	478.32	190.63	115.7	388.95	97.87	75.752	421.52	108.26	44.834	392.33	98.511	44.518	456.86	263.69	39.783	519.32	311.33	39.529	402.93	369.31	56.168	457.07	258.77	635.33	106.24	367.75	573.4	90.417	299.44	555.18	107.94	323.07	652.53	87.584	365.05	479.11	100.59	381.59	456.82	224.43	229.83	342.87	93.854	266.16	238.12	86.877	209.52	267.6	95.024	286.43	311.88	84.157	178.57	105.31	97.904	187.01	111.29	192.12	101.53	73.458	141.56	108.74	47.605	174.98	105.27	46.505	113.07	288.03	42.597	69.661	321.69	47.827	184.67	377.87	56.942	133.96	171.53	1494.4	308.95	90.173	1239.4	290.99
609	2.5333	347.74	1221.5	295.3	226.03	1451.5	477.14	202.12	1441.1	131.13	223.5	1770.9	294.22	315.9	937.23	434.38	314.13	951.95	186.18	102.23	977.16	337.81	108.32	980.47	254.77	228.86	864.78	501.74	201.58	869.65	117.38	237.75	1031.2	476.58	217.76	1036.5	140.6	83.993	936.96	296.39	303.34	614.62	514.59	403.59	560.3	491.76	333.41	529.19	503.37	374.69	666.82	504.9	372.02	469.46	496.9	360.1	458.21	369.4	231.44	287.03	505.84	264.89	187.71	463.99	206.14	221.01	492.98	288.84	254.53	485.68	166.75	110.48	478.32	190.63	115.7	388.95	97.87	75.752	421.52	108.26	44.838	392.33	98.511	44.518	456.86	263.69	39.784	519.32	311.33	39.53	402.93	369.31	56.167	457.07	258.77	635.33	106.26	367.76	573.4	90.433	299.44	555.18	107.95	323.07	652.53	87.601	365.05	479.12	100.6	381.58	456.81	224.44	229.82	342.87	93.863	266.15	238.12	86.883	209.52	267.61	95.032	286.43	311.89	84.164	178.57	105.31	97.905	187.01	111.29	192.12	101.53	73.458	141.56	108.74	47.604	174.98	105.27	46.505	113.07	288.03	42.598	69.662	321.69	47.827	184.67	377.87	56.943	133.96	171.55	1494.4	308.98	90.192	1239.4	291.03
610	2.5375	347.75	1221.5	295.32	226.05	1451.5	477.17	202.09	1441.1	131.13	223.53	1770.9	294.24	315.91	937.23	434.4	314.14	951.94	186.21	102.24	977.16	337.83	108.33	980.47	254.8	228.87	864.78	501.76	201.58	869.65	117.4	237.76	1031.2	476.6	217.77	1036.5	140.62	83.999	936.97	296.41	303.35	614.62	514.6	403.6	560.29	491.76	333.42	529.19	503.37	374.7	666.82	504.91	372.03	469.45	496.9	360.1	458.21	369.4	231.44	287.02	505.84	264.89	187.71	463.99	206.14	221.01	492.98	288.84	254.52	485.68	166.75	110.48	478.32	190.63	115.7	388.95	97.869	75.753	421.52	108.25	44.842	392.33	98.511	44.518	456.86	263.69	39.785	519.31	311.33	39.53	402.93	369.31	56.166	457.07	258.77	635.33	106.27	367.76	573.41	90.448	299.44	555.18	107.97	323.07	652.53	87.619	365.05	479.12	100.61	381.56	456.8	224.44	229.82	342.88	93.871	266.15	238.12	86.889	209.52	267.61	95.039	286.43	311.89	84.172	178.57	105.31	97.906	187.01	111.29	192.12	101.53	73.458	141.56	108.74	47.604	174.98	105.27	46.505	113.07	288.03	42.599	69.662	321.69	47.827	184.68	377.87	56.944	133.96	171.57	1494.4	309	90.211	1239.4	291.07
